<?xml version="1.0" standalone="no"?>
<!DOCTYPE svg PUBLIC "-//W3C//DTD SVG 20010904//EN"
 "http://www.w3.org/TR/2001/REC-SVG-20010904/DTD/svg10.dtd">
<svg version="1.0" xmlns="http://www.w3.org/2000/svg"
 width="300.000000pt" height="300.000000pt" viewBox="0 0 300.000000 300.000000"
 preserveAspectRatio="xMidYMid meet">
<metadata>
Created by potrace 1.11, written by Peter Selinger 2001-2013
</metadata>
<g transform="translate(0.000000,300.000000) scale(0.100000,-0.100000)"
fill="#000000" stroke="none">
<path d="M1375 2660 c-238 -50 -433 -156 -601 -324 -230 -231 -347 -512 -347
-836 0 -436 232 -827 616 -1039 41 -22 78 -41 83 -41 5 0 74 128 154 285 l145
285 488 0 c268 0 487 3 487 6 0 12 -593 1134 -599 1134 -4 0 -116 -216 -249
-480 l-244 -480 -99 0 -100 0 333 660 c274 543 337 660 353 660 41 0 172 -42
255 -83 251 -123 447 -355 524 -621 167 -574 -186 -1152 -779 -1277 -84 -18
-314 -16 -395 4 -36 8 -66 15 -66 14 -18 -22 -73 -152 -67 -157 21 -20 169
-43 298 -47 269 -9 483 52 711 203 161 106 296 263 389 449 96 193 132 366
122 585 -20 454 -308 862 -732 1036 -142 59 -369 101 -392 73 -10 -13 -823
-1657 -823 -1665 0 -2 83 -4 185 -4 102 0 185 -3 185 -7 0 -5 -36 -81 -80
-171 l-80 -164 -57 45 c-335 258 -473 699 -346 1102 47 149 117 267 228 384
86 90 161 149 257 200 73 40 240 101 275 101 13 0 32 26 66 89 26 48 47 91 47
95 0 10 -51 5 -145 -14z m582 -1192 c76 -150 139 -278 141 -285 3 -10 -56 -13
-287 -13 -160 0 -291 3 -291 6 0 13 285 564 292 564 4 0 69 -123 145 -272z"/>
</g>
</svg>
