<?xml version="1.0" encoding="utf-8"?>
<!-- Generator: Adobe Illustrator 21.0.2, SVG Export Plug-In . SVG Version: 6.00 Build 0)  -->
<svg version="1.1" id="Capa_1" xmlns="http://www.w3.org/2000/svg" xmlns:xlink="http://www.w3.org/1999/xlink" x="0px" y="0px"
	 viewBox="0 0 68 50" style="enable-background:new 0 0 68 50;" xml:space="preserve">
<style type="text/css">
	.st0{fill:#1F5C92;}
</style>
<g>
	<g>
		<path class="st0" d="M66.1,6.2h-63c-1.6,0-2.9-1.3-2.9-2.9s1.3-2.9,2.9-2.9h63c1.6,0,2.9,1.3,2.9,2.9S67.7,6.2,66.1,6.2z"/>
		<path class="st0" d="M66.1,29.7h-63c-1.6,0-2.9-1.3-2.9-2.9c0-1.6,1.3-2.9,2.9-2.9h63c1.6,0,2.9,1.3,2.9,2.9
			C69,28.4,67.7,29.7,66.1,29.7z"/>
		<path class="st0" d="M66.1,51h-63c-1.6,0-2.9-1.3-2.9-2.9s1.3-2.9,2.9-2.9h63c1.6,0,2.9,1.3,2.9,2.9S67.7,51,66.1,51z"/>
	</g>
</g>
</svg>
